<svg width="972" height="78" viewBox="0 0 972 78" fill="none" xmlns="http://www.w3.org/2000/svg">
<path d="M15.6533 14.084V33.1514H39.877V14.084H15.6533ZM0.829102 78V0.871094H53.7881V45.7197H35.6875L53.7881 78H39.877L20.8633 45.7197H15.6533V78H0.829102ZM117.489 0.871094V78H64.5303V0.871094H117.489ZM103.578 14.084H79.3545V64.7871H103.578V14.084ZM143.056 64.7871H181.19V78H128.231V0.871094H181.19V14.084H143.056V64.7871ZM206.757 78H191.933V0.871094H206.757V33.1514L230.98 0.871094H244.892L219.057 38.4688L244.892 78H230.98L206.757 45.7197V78ZM574.14 45.7197V0.871094H627.099V14.084H588.964V33.1514H627.099V78H574.14V64.7871H613.188V45.7197H574.14ZM652.665 64.7871H690.8V78H637.841V0.871094H690.8V14.084H652.665V64.7871ZM716.366 78H701.542V0.871094H716.366V78ZM727.108 45.7197V0.871094H780.067V14.084H741.933V33.1514H780.067V78H727.108V64.7871H766.156V45.7197H727.108ZM790.81 45.7197V0.871094H843.769V14.084H805.634V33.1514H843.769V78H790.81V64.7871H829.857V45.7197H790.81ZM907.47 0.871094V78H854.511V0.871094H907.47ZM893.559 14.084H869.335V64.7871H893.559V14.084ZM933.036 14.084V33.1514H957.26V14.084H933.036ZM918.212 78V0.871094H971.171V45.7197H953.07L971.171 78H957.26L938.246 45.7197H933.036V78H918.212Z" fill="#CECECE"/>
<path d="M270.458 78H255.634V0.871094H308.593V45.7197H270.458V78ZM270.458 14.084V33.1514H294.682V14.084H270.458ZM358.383 45.7197H334.159V78H319.335V0.871094H372.294V78H358.383V45.7197ZM334.159 14.084V33.1514H358.383V14.084H334.159ZM397.86 78H383.036V0.871094H435.995V45.7197H397.86V78ZM397.86 14.084V33.1514H422.084V14.084H397.86ZM461.562 14.084V33.1514H499.696V45.7197H461.562V64.7871H499.696V78H446.737V0.871094H499.696V14.084H461.562ZM525.263 14.084V33.1514H549.486V14.084H525.263ZM510.438 78V0.871094H563.397V45.7197H545.297L563.397 78H549.486L530.473 45.7197H525.263V78H510.438Z" fill="#333333"/>
</svg>
